<?xml version="1.0" encoding="UTF-8" standalone="no"?>
<!DOCTYPE svg PUBLIC "-//W3C//DTD SVG 1.1//EN" "http://www.w3.org/Graphics/SVG/1.1/DTD/svg11.dtd">
<svg width="100%" height="100%" viewBox="0 0 1113 234" version="1.1" xmlns="http://www.w3.org/2000/svg" xmlns:xlink="http://www.w3.org/1999/xlink" xml:space="preserve" xmlns:serif="http://www.serif.com/" style="fill-rule:evenodd;clip-rule:evenodd;stroke-linejoin:round;stroke-miterlimit:2;">
    <g transform="matrix(1,0,0,1,-187.456667,-996.009666)">
        <g transform="matrix(4.166667,0,0,4.166667,0,0)">
            <g transform="matrix(1,0,0,1,0,94.16852)">
                <g transform="matrix(1,0,0,1,82.5526,189.1158)">
                    <path d="M0,-32.4C-3.27,-32.4 -5.921,-29.749 -5.921,-26.479C-5.921,-23.209 -3.27,-20.558 0,-20.558C3.27,-20.558 5.921,-23.209 5.921,-26.479C5.921,-29.749 3.27,-32.4 0,-32.4M-3.079,-39.695L-16.911,-6.537L-5.353,-6.537L-5.353,-18.379L5.068,-18.379L5.068,11.747L-5.542,11.747L-5.542,4.453L-20.795,4.453L-24.205,11.842L-37.563,11.842L-13.784,-44.242L-3.079,-39.695Z" style="fill:rgb(247,230,255);fill-rule:nonzero;"/>
                </g>
                <g transform="matrix(1,0,0,1,101.8589,155.8045)">
                    <path d="M0,18.176L2.392,11.401L15.227,11.401L17.618,18.176L0,18.176ZM-7.254,23.039L4.943,-4.863L14.19,-4.863L26.387,23.039L16.662,23.039L7.653,-0.398L11.32,-0.398L2.312,23.039L-7.254,23.039Z" style="fill:rgb(247,230,255);fill-rule:nonzero;"/>
                </g>
                <g transform="matrix(1,0,0,1,0,-30.216)">
                    <rect x="128.207" y="181.157" width="9.407" height="27.902" style="fill:rgb(247,230,255);"/>
                </g>
                <g transform="matrix(1,0,0,1,160.4126,158.2758)">
                    <path d="M0,13.234L3.946,13.234C5.274,13.234 6.437,12.981 7.435,12.476C8.431,11.972 9.208,11.22 9.766,10.224C10.324,9.228 10.604,8.012 10.604,6.577C10.604,5.169 10.324,3.973 9.766,2.99C9.208,2.006 8.431,1.262 7.435,0.757C6.437,0.254 5.274,0.001 3.946,0.001L0,0.001L0,13.234ZM-9.406,20.568L-9.406,-7.334L4.345,-7.334C7.454,-7.334 10.19,-6.769 12.557,-5.64C14.921,-4.51 16.768,-2.91 18.097,-0.837C19.425,1.236 20.089,3.708 20.089,6.577C20.089,9.474 19.425,11.965 18.097,14.05C16.768,16.137 14.921,17.745 12.557,18.874C10.19,20.004 7.454,20.568 4.345,20.568L-9.406,20.568Z" style="fill:rgb(247,230,255);fill-rule:nonzero;"/>
                </g>
                <g transform="matrix(1,0,0,1,0,-30.216)">
                    <rect x="182.375" y="181.157" width="9.406" height="27.902" style="fill:rgb(247,230,255);"/>
                </g>
                <g transform="matrix(1,0,0,1,213.2256,155.0463)">
                    <path d="M0,19.692L0,9.089L8.171,9.089L8.171,20.887L0,19.692ZM-3.986,24.435C-6.245,24.435 -8.325,24.083 -10.225,23.379C-12.125,22.675 -13.771,21.671 -15.167,20.37C-16.562,19.068 -17.646,17.526 -18.416,15.746C-19.187,13.965 -19.571,11.999 -19.571,9.846C-19.571,7.694 -19.187,5.728 -18.416,3.947C-17.646,2.168 -16.556,0.626 -15.147,-0.676C-13.739,-1.978 -12.071,-2.982 -10.145,-3.686C-8.219,-4.39 -6.099,-4.743 -3.787,-4.743C-1.023,-4.743 1.44,-4.277 3.607,-3.347C5.772,-2.416 7.56,-1.088 8.968,0.639L2.949,5.94C2.072,4.93 1.122,4.167 0.1,3.648C-0.924,3.13 -2.06,2.871 -3.309,2.871C-4.345,2.871 -5.282,3.031 -6.119,3.349C-6.956,3.669 -7.667,4.133 -8.251,4.745C-8.836,5.356 -9.288,6.087 -9.606,6.937C-9.926,7.788 -10.085,8.757 -10.085,9.846C-10.085,10.882 -9.926,11.834 -9.606,12.697C-9.288,13.56 -8.836,14.297 -8.251,14.909C-7.667,15.52 -6.97,15.992 -6.159,16.324C-5.349,16.656 -4.438,16.822 -3.429,16.822C-2.366,16.822 -1.329,16.642 -0.319,16.284C0.69,15.925 1.767,15.307 2.909,14.43L8.171,20.887C6.47,22.031 4.53,22.908 2.352,23.518C0.172,24.129 -1.94,24.435 -3.986,24.435" style="fill:rgb(247,230,255);fill-rule:nonzero;"/>
                </g>
                <g transform="matrix(1,0,0,1,0,-30.216)">
                    <rect x="223.868" y="181.157" width="9.406" height="27.902" style="fill:rgb(247,230,255);"/>
                </g>
                <g transform="matrix(1,0,0,1,242.3232,150.9418)">
                    <path d="M0,27.902L0,7.295L-8.172,7.295L-8.172,0L17.578,0L17.578,7.295L9.406,7.295L9.406,27.902L0,27.902Z" style="fill:rgb(247,230,255);fill-rule:nonzero;"/>
                </g>
                <g transform="matrix(1,0,0,1,263.6084,155.8045)">
                    <path d="M0,18.176L2.392,11.401L15.227,11.401L17.618,18.176L0,18.176ZM-7.255,23.039L4.942,-4.863L14.19,-4.863L26.388,23.039L16.661,23.039L7.653,-0.398L11.32,-0.398L2.312,23.039L-7.255,23.039Z" style="fill:rgb(247,230,255);fill-rule:nonzero;"/>
                </g>
                <g transform="matrix(1,0,0,1,289.9561,150.9418)">
                    <path d="M0,27.902L0,0L9.406,0L9.406,20.608L22.002,20.608L22.002,27.902L0,27.902Z" style="fill:rgb(247,230,255);fill-rule:nonzero;"/>
                </g>
                <g transform="matrix(1,0,0,1,98.4248,187.5851)">
                    <path d="M0,7.785L0.725,5.674L8.551,5.674L9.276,7.785L0,7.785ZM-3.002,11.139L3.52,-3.354L6.17,-3.354L12.713,11.139L9.897,11.139L4.286,-1.925L5.363,-1.925L-0.228,11.139L-3.002,11.139Z" style="fill:rgb(247,230,255);fill-rule:nonzero;"/>
                </g>
                <g transform="matrix(1,0,0,1,128.2393,186.2193)">
                    <path d="M0,10.517L0,5.093L2.547,5.093L2.547,10.87L0,10.517ZM-3.126,12.712C-4.258,12.712 -5.297,12.529 -6.242,12.163C-7.188,11.798 -8.013,11.281 -8.716,10.611C-9.42,9.941 -9.966,9.151 -10.352,8.24C-10.739,7.329 -10.932,6.335 -10.932,5.258C-10.932,4.182 -10.739,3.188 -10.352,2.277C-9.966,1.366 -9.417,0.576 -8.706,-0.093C-7.995,-0.763 -7.164,-1.281 -6.211,-1.646C-5.259,-2.012 -4.217,-2.195 -3.085,-2.195C-1.856,-2.195 -0.749,-1.995 0.238,-1.594C1.225,-1.194 2.057,-0.608 2.733,0.165L1.035,1.822C0.469,1.255 -0.142,0.838 -0.797,0.569C-1.453,0.3 -2.174,0.165 -2.96,0.165C-3.72,0.165 -4.424,0.289 -5.072,0.538C-5.721,0.787 -6.28,1.138 -6.75,1.594C-7.219,2.049 -7.581,2.587 -7.836,3.208C-8.092,3.83 -8.22,4.513 -8.22,5.258C-8.22,5.991 -8.092,6.666 -7.836,7.288C-7.581,7.909 -7.219,8.451 -6.75,8.913C-6.28,9.375 -5.728,9.731 -5.093,9.979C-4.458,10.228 -3.754,10.352 -2.981,10.352C-2.264,10.352 -1.57,10.238 -0.9,10.01C-0.231,9.783 0.407,9.4 1.015,8.861L2.547,10.87C1.788,11.477 0.908,11.936 -0.093,12.246C-1.094,12.557 -2.105,12.712 -3.126,12.712" style="fill:rgb(247,230,255);fill-rule:nonzero;"/>
                </g>
                <g transform="matrix(1,0,0,1,0,22.956)">
                    <path d="M142.38,167.3L149.585,167.3L149.585,169.516L142.38,169.516L142.38,167.3ZM142.587,173.512L150.766,173.512L150.766,175.769L139.896,175.769L139.896,161.275L150.476,161.275L150.476,163.532L142.587,163.532L142.587,173.512Z" style="fill:rgb(247,230,255);fill-rule:nonzero;"/>
                </g>
                <g transform="matrix(1,0,0,1,159.3369,184.2316)">
                    <path d="M0,14.493L0,0L2.215,0L11.305,11.159L10.207,11.159L10.207,0L12.878,0L12.878,14.493L10.663,14.493L1.573,3.333L2.671,3.333L2.671,14.493L0,14.493Z" style="fill:rgb(247,230,255);fill-rule:nonzero;"/>
                </g>
                <g transform="matrix(1,0,0,1,188.3848,184.0246)">
                    <path d="M0,14.907C-1.104,14.907 -2.129,14.723 -3.074,14.358C-4.021,13.993 -4.842,13.475 -5.538,12.805C-6.235,12.136 -6.777,11.345 -7.164,10.434C-7.55,9.523 -7.743,8.53 -7.743,7.453C-7.743,6.377 -7.55,5.383 -7.164,4.471C-6.777,3.56 -6.231,2.77 -5.528,2.101C-4.824,1.431 -4.003,0.914 -3.064,0.549C-2.126,0.182 -1.098,0 0.021,0C1.208,0 2.291,0.204 3.271,0.61C4.251,1.017 5.079,1.622 5.756,2.422L4.017,4.057C3.492,3.492 2.905,3.067 2.257,2.784C1.608,2.502 0.904,2.36 0.146,2.36C-0.614,2.36 -1.308,2.484 -1.936,2.732C-2.563,2.981 -3.109,3.333 -3.571,3.789C-4.034,4.244 -4.393,4.782 -4.648,5.403C-4.903,6.024 -5.031,6.708 -5.031,7.453C-5.031,8.199 -4.903,8.882 -4.648,9.503C-4.393,10.124 -4.034,10.662 -3.571,11.118C-3.109,11.573 -2.563,11.926 -1.936,12.174C-1.308,12.423 -0.614,12.547 0.146,12.547C0.904,12.547 1.608,12.405 2.257,12.122C2.905,11.84 3.492,11.408 4.017,10.828L5.756,12.484C5.079,13.271 4.251,13.872 3.271,14.286C2.291,14.7 1.201,14.907 0,14.907" style="fill:rgb(247,230,255);fill-rule:nonzero;"/>
                </g>
                <g transform="matrix(1,0,0,1,205.6533,184.2316)">
                    <path d="M0,14.493L0,8.758L0.6,10.414L-5.694,0L-2.816,0L2.235,8.385L0.621,8.385L5.714,0L8.364,0L2.07,10.414L2.691,8.758L2.691,14.493L0,14.493Z" style="fill:rgb(247,230,255);fill-rule:nonzero;"/>
                </g>
            </g>
        </g>
    </g>
</svg>
